<svg xmlns="http://www.w3.org/2000/svg" xmlns:xlink="http://www.w3.org/1999/xlink" width="381.5" height="216.8">
    <style>
        .B{font-family:Virgil,Segoe UI Emoji}.C{direction:ltr}.D{stroke-linecap:round}@font-face{font-family:&quot;Virgil&quot;;src:url(https://excalidraw.com/Virgil.woff2)}@font-face{font-family:&quot;Cascadia&quot;;src:url(https://excalidraw.com/Cascadia.woff2)}
    </style>
    <defs>
        <path id="A" d="M11.7 178.8h.5l1.6-.2q1.2-.2 2.2-.9 1-.7 2.2-1.2l2.6-1.2q1.4-.8 2.1-1.6l1.8-1.7 1.9-1.7 2-1.8 2-2q1-.9 1.6-1.8l1.7-2.1 2.2-2.5 1.7-2q.6-1 1.8-2.1 1.2-1.2 2-2.3.9-1 1.6-2.4l1.5-2.7 1.5-3 1.5-2.8L49 140q.7-1.6 1.4-2.7l1.2-2.4 1-2.3 1.4-3.1.9-2.6.4-1q.3-.5.8-.9l1-.5 1.1-.3 1.2.2 1 .5.8.8.5 1 .2 1.2q0 .6-.2 1.1l-.6 1q-.4.5-.9.8t-1 .4q-.6.2-1.2.1-.5 0-1-.3-.6-.2-1-.6-.5-.4-.8-.9l-.4-1v-1.2q0-.6.4-1 .2-.6.6-1l1-.7q.5-.3 1-.3H59q.6.1 1 .4l1 .7.6 1 .3 1.1v.6l-1 2.7q-.8 2.8-1.4 3.8l-1.1 2.3-1.3 2.6-1.2 2.4-1.3 2.6L53 148l-1.8 3.4-1.5 2.8-1.5 2.5-1.6 2.2q-.8 1-1.7 1.6t-1.6 1.9l-1.6 2q-.7 1-1.5 1.8l-1.7 1.8-1.5 1.8q-.6 1-1.4 1.8l-1.8 1.7q-1 1-1.9 1.5-.9.6-1.8 1.5l-1.7 1.6-1.7 1.5-2.4 1.3-3 1.3-2.4.8-2.5.8q-1.5.4-2.7.3l-1.6-.2h-.8l-.6-.2-.5-.3-.4-.4-.4-.5-.2-.5v-1.1l.2-.6.4-.5.4-.4.5-.2.6-.2h.3z"/>
        <path id="B" d="m53.4 129.5.8-1.4 1.4-2.4 1-2.3 1-2.2q.6-1 1-2.3l1.2-2.8 1-2.5q.6-1 1-2.2t1.2-2.8l1-2.7 1.3-2.5 1.4-2.5 1.4-2.1 1.5-2 1.9-2.3q1-1.1 2.1-2 1-.8 1.6-2.2.6-1.5 1.4-2.7.7-1.2 1.4-2 .6-1 1.4-1.9l1.6-2 1.8-2q.9-.8 1.7-1.8.7-1 2-2.3 1.3-1.3 2.6-2.2l2.3-1.6q1-.7 2.2-1.1 1.4-.5 1.2.4-.1 1 .2.4.3-.5.8-.9.4-.4 1-.6l1.2-.3 1.2.2q.6.1 1 .5.6.3 1 .8l.5 1 .2 1.2-.2 1.2q-.2.6-.6 1.1-.3.5-.8.8-.5.4-1.1.5l-1.2.2q-.6 0-1.2-.3-.6-.2-1-.6t-.8-1l-.5-1V73q0-.6.3-1.1l.7-1q.4-.5 1-.8l1-.3h1.3q.6 0 1.1.3.6.3 1 .8l.7 1 .3 1.1v1.2q0 .6-.2.6L99 76q-2.6 1.2-3.5 1.8l-1.8 1.3-1.8 1.4q-1 .8-1.8 1.7-.7 1-1.5 1.8l-1.5 1.6-1.8 2-1.6 2.2-1.3 2-1.2 1.9q-.6 1-1.5 2l-1.8 2-2 2.2-1.9 2.5q-1 1.2-1.7 2.5l-1.4 2.4-1.1 2-1 2.4-1.1 2.4-1 2-1.1 2-1.2 2.6-1.6 2.7-1.6 2.5-1.3 2.2-1.3 2.4-.9 1.7q-.1.3-.4.5l-.5.3-.6.2-.6.1H55l-.6-.3-.5-.3-.4-.5-.3-.6-.1-.6v-.6l.1-.6.1-.3z"/>
        <path id="C" d="M96 72.1h.5l1.7-.2 2.3-.3 2.4-.1 2.5-.1q1.4 0 2.8.6t3.1.9q1.8.3 3.1.8l2.3 1 2.4 1 2.3 1.1q1 .5 2.2 1.4l2.2 1.8 1.7 1.7 1.7 2.1q.8 1.2 1.9 2.3l1.9 2 1.6 2 1.5 2.1 1.5 2.3q1 1 1.5 2.1l1.4 2.5 1.3 2.4 1.3 2.2 1.7 2.4 1.8 2.6 1.4 2.2 1 2 1 2q.5 1.2 1.2 2.3l1.4 2.1 1.4 1.9 1.4 1.8 1.5 2.5 1.4 2.4 1.2 2.4q.7 1.3 1 2.6l.8 2.5.8 2.2 1.2 2q.6.9 1.3 2.6l1.3 3 1.2 2.5q.6 1.1 1.5 2l1.9 1.5q1 .8 2 2l2 2q.8.9 2.5 1.5l2.7 1q1 .5 2.1.2 1.2-.3 3.4-.3l2.8.1q.6.1 1.1.4.6.3 1 .8l.7 1q.3.5.3 1.1v1.3l-.5 1.1-.8 1-1 .6-1.2.2-1.3-.1-1-.5-1-.8-.5-1.1-.2-1.2.2-1.3.5-1q.4-.5 1-.9l1-.5q.6-.2 1.3-.1l1.2.2 1 .7q.5.4.8 1l.5 1v1.3q0 .6-.3 1.1l-.7 1q-.4.5-1 .8t-1.1.4l-.6.1h-7.1l-2.2-.2q-1-.2-2.3-1-1.1-.8-2.3-1.1-1.2-.4-2.1-1-1-.5-2-1.4l-2-2-1.9-1.7q-1-.8-2.1-2-1.2-1.2-2.2-2.5-1-1.3-1.4-2.3l-1-2.4-1.1-2.5q-.5-1.2-1.2-2l-1.1-2q-.6-1.1-.9-2.2l-.6-2.2-.7-2.2-1-2.3-1.5-2.7-1.6-2.6-1.6-2.1-1.4-2.1-1.6-2.5q-1-1.6-1.5-2.8l-1-2.1-1.2-2.1-1.5-2.4-1.5-2-1.4-2-1.3-2.1-1.2-2.3-1.2-2.1q-.5-1-1.6-2.4l-1.7-2.4q-.7-1.1-1.6-2l-1.8-2.2-1.9-2.3q-.7-1.2-2-2.5t-2.4-2.3l-2.5-1.6-2.8-1.3-2.4-1.1q-1-.6-2.2-.8-1.1-.2-2.2-.8-1.2-.6-2.4-.8l-2.4-.3-2.3-.2q-1.2 0-2.3-.2l-1.7-.2h-.8l-.5-.2-.5-.3-.5-.4-.3-.4-.2-.6V74l.2-.6.3-.5.5-.4.5-.2.5-.2h.3z"/>
    </defs>
    <path fill="#fff" d="M0 0h381.5v216.8H0z"/>
    <path fill="none" stroke="#000" d="m10 193.9 338-1m-338 1 338-1" class="D"/>
    <text x="359.4" y="199.8" class="B C" font-size="20" style="white-space:pre">t</text>
    <use xlink:href="#A"/>
    <use xlink:href="#B"/>
    <use xlink:href="#C"/>
    <use xlink:href="#A" x="171" y="-19.9"/>
    <use xlink:href="#B" x="171" y="-19.9"/>
    <use xlink:href="#C" x="171" y="-19.9"/>
    <g class="B C">
        <text y="19" font-size="20" style="white-space:pre" transform="translate(43.4 10)">Rules getting </text>
        <text y="45" font-size="20" style="white-space:pre" transform="translate(43.4 10)">more complicated</text>
    </g>
    <path fill="none" stroke="#000" d="m356.6 181 14.9-.4m-15 .3 15-.3m-7 2.7 7-2.7m-7 2.7 7-2.7m-7-2.4 7 2.5m-7-2.5 7 2.5" class="D"/>
</svg>
