<svg xmlns="http://www.w3.org/2000/svg" width="381.4" height="184.9">
    <style>
        .B{stroke-linecap:round}.C{font-family:Virgil,Segoe UI Emoji}@font-face{font-family:&quot;Virgil&quot;;src:url(https://excalidraw.com/Virgil.woff2)}@font-face{font-family:&quot;Cascadia&quot;;src:url(https://excalidraw.com/Cascadia.woff2)}
    </style>
    <path fill="#fff" d="M0 0h381.4v184.9H0z"/>
    <path fill="none" stroke="#000" d="m10 162 338-1m-338 1 338-1m8.3-11.3 15-.3m-15 .3 15-.3m-7 2.7 7-2.7m-7 2.7 7-2.7m-7-2.4 7 2.4m-7-2.4 7 2.4" class="B"/>
    <text x="359.4" y="167.9" class="C" font-size="20" style="white-space:pre">t</text>
    <path d="M31.5 139.3h.7l1.9-.2 2.3-.2 2.3-.5 2.3-.8 2.5-.8 2.4-.7 2.4-.7q1.4-.4 2.4-1t2.4-1.2l2.4-1.2 2.5-1.3q1.4-.8 2.9-1.4l2.7-1.5 2.3-1.5 2.4-1.7L71 123l2.4-1.6 2.4-1.6 2.6-1.8 2.4-1.5 2-1.4 2.2-1.8 1.7-1.9 1.7-2q1.1-1 1.8-2l1.6-1.7 1.6-1.8 2-2.4 2.3-2.6q1.1-1.1 2-2.3l1.8-2.2q1-1 2-2.7l1.4-2.2.5-1q.3-.5.8-.8.5-.4 1-.5.5-.2 1.1-.2.6 0 1.1.2l1 .6.7.8.5 1v1.2q0 .6-.2 1l-.6 1-1 .7q-.4.3-1 .4h-1q-.6 0-1.2-.3l-.9-.7q-.4-.4-.6-.9t-.3-1v-1.2l.4-1 .7-1 1-.5 1-.3 1.2.1q.6.1 1 .5.5.3.8.7l.6 1 .2 1.1v.6l-1 2-1.7 2.9-1.5 2-1.7 2-2.1 2.5-2 2.3q-1 1-2.2 2.6l-2 2.5-1.4 1.7-1.8 2-2 2-2 2.2-2.4 2.2-2.4 1.7q-1.2.8-2.2 1.2-1 .5-2.3 1.6l-2.5 2-2.6 1.6-2.7 1.8q-1.5 1-2.4 1.8l-2.3 1.6-2.8 1.7-3 1.5q-1.7.7-3 1.5-1.5.7-2.7 1.5t-2.5 1.3l-2.5.9-2.5.7-2.7.5-3 .6q-1.6.3-2.6.7l-2.4.5q-1.3.3-2.4.2l-2.3-.2-2-.2h-.9l-.6-.2-.5-.3-.5-.4-.3-.5-.2-.5v-1.2l.2-.6.3-.5.5-.4.5-.2.6-.2h.3z"/>
    <path d="m97.3 98.1.8-.9 2.3-2.3q1.5-1.4 2.3-2.4t1.6-1.8q1-.9 1.8-2l2-2.4 1.8-2.2 1.7-1.9 1.8-2.4q1-1.4 2-2.4.7-1 2-2.1 1.1-1.2 2.3-2.2l2.4-1.8 2.2-1.6 2-1.3 2.1-1.2q1-.6 2.3-1.1 1.3-.6 2-1.5l1.9-1.9 2.5-1.9 2.3-1.7 2.2-1.5 2.1-1.3 2-1.1 2.1-1.2 2.1-1.3 2.5-1.5 2.7-1.2 2-.8 2.2-.7 2.2-.8q1-.4 2.2-.4 1.3-.1 1.7.4.4.5.8 0l1-.6q.6-.3 1.2-.3h1.2q.6.1 1 .5l1 .7.6 1 .3 1.2-.2 1.2-.5 1.1q-.3.5-.8.9l-1 .6-1.2.2q-.6 0-1.2-.3-.6-.1-1-.5-.6-.4-.9-.9l-.5-1q-.2-.6-.1-1.3 0-.6.2-1.1.2-.6.6-1 .4-.5 1-.8l1-.5h1.3q.6 0 1.1.3.6.2 1 .6l.7 1q.3.5.4 1.1V51q0 .6-.4 1.2l-.2.5-3.1 1q-3 1-4.2 1-1.2 0-2.4.5l-2.4.9-2.3.8-2.2 1q-1 .4-2.2 1.2l-2.3 1.4-2.3 1.3-2 1.2-1.9 1.2-2 1.4-2.1 1.7-2 1.7q-1 .9-2.2 1.6l-2.6 1.7-2.4 1.3q-1.2.5-2 1.2l-2.1 1.5-2 1.4-1.9 1.6-2.2 2.2q-1.3 1.2-2 2.1l-1.5 2-1.8 2-1.8 2-1.8 1.9-1.9 1.9-1.7 1.5-1.9 1.7-2.5 2.3-2.2 2-1.1 1.1-.6.4-.6.1h-1.2l-.6-.3-.5-.4-.4-.5-.3-.6v-1.2l.2-.6.3-.5.2-.3z"/>
    <path d="M165.8 47.4h.7l1.9-.2 2.3-.2 2.3-.2 2.4-.1 2.4-.2h2.5l2.8.2 3 .5 2.3.5q1 .3 2.6.5l2.7.5 2.7.7 3 .8 3 .9 2.8.9 2.5 1 2.6 1 2.4 1.3 2.2 1.5q1.1.7 2 1.7t2.4 1.8l2.3 1.5 1.8 1.3 2 1.5q1.2.8 2.2 1.8l1.7 1.7 1.9 1.6 1.9 1.6 2 2.1 2.2 2.5 1.7 2q.8 1 1.7 1.8 1 1 1.9 1.6 1 .7 1.7 1.5l2 2q1 1.2 2.1 2.2l1.8 2 1.4 2q.6 1 2 2.3t2.4 2.4l2.4 2q1.2.8 2 1.6.9.7 1.7 1.6t1.5 1.7l1.7 2q1 1 1.7 2l1.3 1.8 1.2 2.2 1 2.3q.5 1 1.2 1.9l1.7 1.7 1.8 1.9q.9 1 1.5 2 .6 1.2 1.4 2.3l1.7 2.3 2 1.8 3 1.6 2.7 1.5 2 1.3 2.2 1.4q1.2.7 2.7 1.1l3.1 1q1.7.4 3.2 1 1.6.4 3 .4h12.5l1.2.4.9.7.7 1 .3 1.1v1.2q0 .6-.5 1.1-.3.6-.8 1l-1 .6-1.2.2-1.2-.1-1-.5q-.6-.3-1-.8l-.5-1-.2-1.3q0-.6.2-1.1.2-.6.6-1 .3-.6.8-1 .5-.3 1.1-.4l1.2-.2q.6 0 1.2.3.6.2 1 .6.5.4.8 1t.4 1q.2.6 0 1.2l-.2 1.2-.7 1-1 .7-1 .4h-15q-1.2-.2-2.5-.7l-2.3-.9-2.8-.7q-1.7-.3-3-.8-1.2-.4-2.5-1.2l-2.3-1.6-2.3-1.5-2.9-1.6q-1.6-.7-2.8-1.5-1.1-.7-2.6-2t-2.1-2.2l-1.3-1.8q-.6-.9-1-2-.6-1-1.5-2l-2-2-1.9-1.9q-.7-.8-1.2-2-.4-1.2-1-2.2l-1.2-2.3-1.6-2.4-1.8-2.3-1.8-1.8q-.7-.8-1.8-1.6l-2.3-2-2.4-2.2-2.2-2-1.9-2.3-1.5-2-1.8-2.3-2.5-2.5q-1.3-1.3-2.6-2.3t-2-1.9-2-1.9l-2.1-2.5-2-2.1q-1-.9-1.6-1.7-.8-.9-2.4-2.2l-2.3-2-2-1.8-2.6-2-2.5-1.6q-1-.7-2.3-2l-2.3-2-2-1.4-2.8-1.4q-1.6-.8-3-1.2l-2.4-.9q-1-.4-2.4-.7l-3.2-.8-3-.8-2.5-.5-2.6-.4q-1.4-.2-2.8-.8-1.3-.5-2.4-.7-1.1-.2-2.4-.2h-2.5l-2.4-.2-2.4-.1-2.3-.2-2.3-.2-1.9-.2h-1q-.3 0-.5-.2-.3 0-.6-.3l-.4-.4-.4-.5-.2-.5v-1.2l.2-.6.4-.5.4-.4.6-.3h.5l.3-.1z"/>
    <path fill="none" stroke="#000" stroke-dasharray="1.5 7" stroke-width="1.5" d="M174.4 29.5v135M303.8 30v134.9" class="B"/>
    <text x="187.3" y="29" class="C" font-size="20" style="white-space:pre">Compaction</text>
</svg>
