<svg xmlns="http://www.w3.org/2000/svg" xmlns:xlink="http://www.w3.org/1999/xlink" width="381.4" height="203.9">
    <defs>
        <style>
            @font-face{font-family:&quot;Virgil&quot;;src:url(https://excalidraw.com/Virgil.woff2)}@font-face{font-family:&quot;Cascadia&quot;;src:url(https://excalidraw.com/Cascadia.woff2)}
        </style>
        <path id="A" d="m33.3 158.8.2.2.4.7v1.4l-.4.6-.5.5q-.3.2-.7.2l-.7.1q-.4 0-.7-.2l-.6-.3-.4-.6-.3-.7v-.7l.2-.6.4-.6.6-.4q.3-.2.7-.2h.7l.6.2q.4.2.6.5l.4.6.2.7-.1.6-.3.7-.5.5q-.2.3-.6.4l-.7.1h-.7l-.6-.4-.3-.2-.2-.2-.2-.5-.2-.5v-1l.3-.5.3-.4.4-.4.5-.2h1.1l.5.1.4.3.2.2z"/>
    </defs>
    <path fill="#fff" d="M0 0h381.4v203.9H0z"/>
    <path fill="none" stroke="#000" stroke-linecap="round" d="m10 181 338-1m-338 1 338-1m8.3-11.3 15-.3m-15 .3 15-.3m-7 2.7 7-2.7m-7 2.7 7-2.7m-7-2.4 7 2.4m-7-2.4 7 2.4"/>
    <text x="359.4" y="186.9" font-family="Virgil, Segoe UI Emoji" font-size="20" style="white-space:pre">t</text>
    <g fill="#888">
        <path d="M31.5 158.3h.7l1.9-.2 2.3-.2q1.1-.1 2.3-.5l2.3-.8 2.5-.8 2.4-.7 2.4-.7q1.4-.4 2.4-.9t2.4-1.3l2.4-1.2 2.5-1.3 2.9-1.4 2.7-1.5 2.3-1.5 2.4-1.6 2.7-1.8 2.4-1.6 2.4-1.6 2.6-1.8 2.4-1.5 2-1.4q1.1-.7 2.2-1.8t1.7-1.9l1.7-2q1.1-1 1.8-1.9l1.6-1.8 1.6-1.8 2-2.4 2.3-2.6q1.1-1 2-2.3l1.8-2.2q1-1 2-2.7l1.4-2.2.5-1q.3-.5.8-.8.5-.4 1-.5.5-.2 1.1-.2.6 0 1.1.3l1 .5.7.9.5 1v1.1q0 .6-.2 1.1l-.6 1q-.4.4-1 .6-.4.3-1 .4h-1q-.6 0-1.2-.3l-.9-.7q-.4-.4-.6-.9t-.3-1v-1.2l.4-1 .7-.9q.4-.4 1-.6l1-.3 1.2.1q.6.1 1 .5.5.3.8.7l.6 1 .2 1.1v.6l-1 2-1.7 3-1.5 1.9-1.7 2-2.1 2.5-2 2.3q-1 1-2.2 2.6l-2 2.5-1.4 1.8-1.8 1.9-2 2-2 2.3-2.4 2-2.4 1.8-2.2 1.3q-1 .5-2.3 1.5l-2.5 2-2.6 1.7-2.7 1.7q-1.5 1-2.4 1.8l-2.3 1.6-2.8 1.7-3 1.5q-1.7.7-3 1.5l-2.7 1.5-2.5 1.3-2.5 1-2.5.6-2.7.6-3 .5q-1.6.3-2.6.7l-2.4.6q-1.3.2-2.4.1l-2.3-.2-2-.2h-.9l-.6-.2-.5-.3q-.3-.1-.5-.4l-.3-.5-.2-.5v-1.2l.2-.6.3-.5.5-.4.5-.2.6-.2h.3z"/>
        <path d="m97.3 117.1.8-.8 2.3-2.4q1.5-1.4 2.3-2.4t1.6-1.8q1-.9 1.8-2l2-2.3 1.8-2.3q.9-.8 1.7-1.8l1.8-2.5q1-1.4 2-2.3.7-1 2-2.2 1.1-1.2 2.3-2.2l2.4-1.8 2.2-1.6 2-1.3 2.1-1.2 2.3-1.1q1.3-.6 2-1.5l1.9-1.8 2.5-2 2.3-1.7 2.2-1.5 2.1-1.3 2-1.1 2.1-1.2q1.2-.6 2.1-1.3l2.5-1.5 2.7-1.2 2-.8 2.2-.7 2.2-.7q1-.4 2.2-.5 1.3 0 1.7.4.4.5.8 0l1-.6 1.2-.3h1.2q.6 0 1 .5.6.3 1 .8.4.4.6 1l.3 1.2-.2 1.2-.5 1-.8 1-1 .5-1.2.2-1.2-.2q-.6-.2-1-.6-.6-.4-.9-.9l-.5-1q-.2-.6-.1-1.2l.2-1.2q.2-.6.6-1 .4-.5 1-.8l1-.5h1.3q.6 0 1.1.3l1 .7.7 1 .4 1v1.3q0 .6-.4 1.1l-.2.5-3.1 1q-3 1-4.2 1-1.2 0-2.4.5l-2.4.9-2.3.8-2.2 1L153 78l-2.3 1.4-2.3 1.3-2 1.2-1.9 1.2q-1 .6-2 1.5l-2.1 1.6-2 1.7q-1 1-2.2 1.7l-2.6 1.6q-1.3.9-2.4 1.4-1.2.5-2 1.1l-2.1 1.5-2 1.4-1.9 1.6-2.2 2.2q-1.3 1.2-2 2.2-.7 1-1.5 1.8l-1.8 2.1-1.8 2-1.8 1.9-1.9 1.9q-.8.9-1.7 1.5l-1.9 1.7-2.5 2.3-2.2 2.1-1.1 1-.6.4-.6.2H99l-.6-.1-.6-.3q-.3-.1-.5-.4l-.4-.5-.3-.5v-1.2l.2-.6.3-.5.2-.3z"/>
        <path d="M165.8 66.4h.7l1.9-.2 2.3-.2 2.3-.2 2.4-.1 2.4-.1 2.5-.1 2.8.2 3 .5 2.3.5q1 .3 2.6.5l2.7.5q1.1.4 2.7.7l3 .8 3 .9 2.8.9 2.5 1 2.6 1 2.4 1.3 2.2 1.5q1.1.8 2 1.7t2.4 1.8l2.3 1.5 1.8 1.3 2 1.5q1.2.8 2.2 1.8l1.7 1.7 1.9 1.6 1.9 1.6 2 2.1 2.2 2.5 1.7 2 1.7 1.9 1.9 1.6q1 .6 1.7 1.4l2 2 2.1 2.2 1.8 2 1.4 2q.6 1 2 2.3t2.4 2.4l2.4 2q1.2.8 2 1.6l1.7 1.6 1.5 1.7 1.7 2 1.7 2 1.3 1.9 1.2 2.1 1 2.3q.5 1 1.2 1.9l1.7 1.8 1.8 1.8q.9 1 1.5 2 .6 1.2 1.4 2.3l1.7 2.3q1 1.1 2 1.8l3 1.6 2.7 1.6 2 1.2 2.2 1.4q1.2.7 2.7 1.2l3.1.9 3.2 1q1.6.4 3 .4h12.5l1.2.4.9.7.7 1 .3 1.2v1.2q0 .6-.5 1-.3.6-.8 1l-1 .6-1.2.3-1.2-.2q-.6-.1-1-.5-.6-.3-1-.8l-.5-1-.2-1.2.2-1.2q.2-.6.6-1 .3-.6.8-.9l1.1-.5q.6-.2 1.2-.1l1.2.2 1 .6q.5.4.8 1t.4 1q.2.7 0 1.3 0 .6-.2 1.1l-.7 1-1 .7-1 .4-.7.1h-11.8q-1.3 0-2.5-.2-1.2 0-2.5-.6l-2.3-.9-2.8-.7q-1.7-.3-3-.8-1.2-.4-2.5-1.2l-2.3-1.5-2.3-1.6q-1.3-.8-2.9-1.5L278 152l-2.6-2q-1.5-1.4-2.1-2.3l-1.3-1.8q-.6-.9-1-2-.6-1-1.5-2l-2-2-1.9-1.9q-.7-.8-1.2-2-.4-1.2-1-2.2l-1.2-2.3q-.7-1.3-1.6-2.4l-1.8-2.2-1.8-1.9-1.8-1.6-2.3-2-2.4-2.2-2.2-2-1.9-2.3-1.5-2-1.8-2.2-2.5-2.6q-1.3-1.3-2.6-2.3t-2-1.8l-2-2-2.1-2.5-2-2.1q-1-.8-1.6-1.7-.8-.9-2.4-2.1l-2.3-2-2-1.9-2.6-2-2.5-1.6q-1-.7-2.3-2l-2.3-2-2-1.4-2.8-1.4q-1.6-.8-3-1.2l-2.4-.8q-1-.5-2.4-.8l-3.2-.8-3-.7-2.5-.5-2.6-.5q-1.4-.2-2.8-.7-1.3-.6-2.4-.8l-2.4-.2h-2.5l-2.4-.2-2.4-.1-2.3-.2-2.3-.2-1.9-.1-1-.1q-.3 0-.5-.2-.3 0-.6-.3l-.4-.4-.4-.5-.2-.5v-1.2l.2-.6.4-.5.4-.4q.2-.2.6-.2l.5-.2h.3z"/>
        <use xlink:href="#A"/>
        <use xlink:href="#A" x="1.8" y=".2"/>
    </g>
    <path d="m28.7 157.7.7-.9 1.2-2q.4-1 1.3-1.8t2.3-.7q1.4 0 2.4.6t1.5 1.6q.5 1 1.4 2l1.5 1.8 1.5 1.7 1.5 1.7q.9 1-.1.4-1-.5-1.3-1.6-.3-1.2-.3-2.4 0-1.3.2-2.5l.4-2.6.5-2.5.5-2.4q.3-1.3 1-2.5.8-1.3 1.8-2.5t2.3-2 2.4-.8q1 0 2.7.5 1.5.6 2.3 1.4l1.6 2q1 1.3 1.4 2.3l1.2 2.3 1.3 2.6q.6 1.3 1.6 2.1 1 1-.5.6-1.5-.3-1.4-1.4 0-1 .3-2.3l.2-2.3.2-2.5q.2-1.5.6-2.9l.8-2.9.8-2.6q.4-1.2 1.6-2.6 1.2-1.4 2.3-2 1-.7 2.6-.5 1.5.2 2.5.7 1 .5 1.7 1.4l1.6 2 2 2.5 1.7 2.6q.6 1.1 1 0l.7-2.3.4-2.2.4-2.5.2-2.5v-5.1l-.1-2.5-.2-2.4-.1-2.3q0-1 .4-2.4l.8-2.7q.5-1.3 1.6-2.4 1.1-1 2.3-1.3 1.2-.2 2.3 0l2 1 2 1.6 2 2 1.6 2q.8 1.1 1.3 2.2t1 2l1 2.2q.6 1.1.9 2.4l.3 1.4v.6l-.1 1-.3.8-.6.7-.6.6-.8.4-1 .2h-.8q-.5 0-.9-.2l-.8-.5-.6-.6-.5-.7-.3-.9q-.1-.5.5-1.5t.4-2.3q-.1-1.2.5-2.7l1.5-3.2 1.8-3.2 1.3-2.7 1.1-2.4q.6-1.2 1-2.8l1-2.8q.4-1.3.5-2.5.1-1.2.6-2.8.5-1.6 1.1-2.5.7-1 .4-1-.2 0 0-.3l.7-.6.7-.4.8-.2h.9l.8.1.8.4.6.5.6.7.3.8.1.8v.9l-.3.8q-.2.4-.8-2-.5-2.5.4-1.3L114 99q.6 1.2 1.7 2.7l1.8 3 1.4 2.2q.6 1-.8 1.2-1.5.2-.9-1l1.2-2.3 1.1-2.7.8-2.4.6-2.4.7-2.8.5-3.1.5-3 .7-2.7q.4-1.2.5-2.3v-2l.1-1.2.2-.8.4-.8.6-.6q.3-.3.7-.4l.8-.3.8-.1.9.1.7.3.7.5.6.7.3.7.2.8q0 .4.9 1.6l1.5 2.7q.7 1.4 1.4 2.4l1.5 1.8 1.8 2q1 1.2 1.3-.3.2-1.5.8-2.4.6-.9 1.2-2.3t1.2-2.8l1.3-2.8q.8-1.5 1.1-2.6l.9-2.3.9-2.5.7-2.2.7-2.5.6-2.5.4-1.3.2-.6q0-.4.3-.8l.5-.7.7-.5q.3-.3.7-.4l.9-.2h.8q.4 0 .9.3l.7.4.6.6.5.7.2.8q.2.5.1.9 0 .4-.7-1.1-.7-1.6.1-.9.9.7 1.6 1.6l1.4 2.3 1.3 2.4 1.3 2.6 1.4 2.7 1.2 2.3q.4 1-1.3.7-1.8-.3-1.3-2.2.6-1.8 1.4-3.1t1.4-2.4q.7-1 1.6-2.8l1.7-3.2q.8-1.5 1.6-2.5t2-1.8q1.3-.8 2.6-.6 1.3.1 3 1 1.6 1 3 2.2 1.4 1.1 2.2 2 .7.7 1.7 2.1l1.6 2.3 1.2 2.4 1.2 2.4q.5 1.1.4 0 0-1 1-2.2 1.2-1 1.8-2 .5-1 1.3-2 .8-1.1 1.2-2.3.4-1.2 1.3-2.1.9-1 2-1.2 1-.3 3.4 1 2.4 1.4 3.3 2.7 1 1.4 1.9 3.1 1 1.8 1.7 3.5l1.3 2.9 1.3 2.8 1.3 3q.5 1.6 1.2 2.4.7.9-.3.4t0-1.8l1.8-2.1q.8-.8 1.5-1.8.9-1 1.6-2.1.7-1.1 1.2-2.3.5-1.1 1.3-2l1.1-.9.9-.3h.8l1 .1.7.4.7.5.5.7.4.8.1.9v.9q0 .4-.3.8-.1.4-.4.7l-.6.7q-.4.2.2-2.2.7-2.4 1-1.1l.5 2.7.4 2.7.5 2.3.5 2.4.7 2.3.7 2.1.6 2.2q.2 1.1.7 2.5.6 1.5-1 1.2t-.1-1.2l2.6-1.9 2.1-1.8q.9-.8 1.8-2.2.9-1.3 1.2-2.6.4-1.3.3-1.6-.2-.2 0-.6l.1-.8.5-.7.5-.6q.3-.3.7-.4l.8-.3h1.6l.7.4.7.5.5.6.3.8.2.8.3 1.8.4 2.6.4 2.6.5 3.1.4 3.2.4 3 .6 3.3.7 3q.3 1.5 1 3.2l1 3q.4 1.2 1.1 2.4l1.4 2.5 1.2 2.4.7 1.3v.6l-.1.8-.3.8-.5.7-.6.6-.7.4-.9.2h-.8l-.8-.2-.8-.4-.6-.5-.5-.7-.3-.8q-.1-.4 1-2.1 1.1-1.8 1.1-3t.3-2.3l.7-2.4.8-2.4q.3-1.1.9-2.2l.8-1.5.7-.5q.3-.3.7-.4.4-.2.9-.2h.8q.5 0 .9.2.4.1.7.4t.7.6l.5.7.3.8v1.7l-.3.8q-.2.4-.4-1.9t.6-.5l1.3 3.1 1.4 3.4 2 3.8q1 1.8 2.3 3.6l2.1 3.4 1.9 3.2 1.5 3.1 1.3 2.8 1.1 2.6 1 2.5 1 2.4.5 1.9v1l-.2.6-.3.7-.5.5q-.2.3-.6.4l-.6.3h-1.4q-.4 0-.7-.2l-.6-.4-.5-.6-.3-.6q-.2-.3-.2-.7l.2-1.7.8-3.7q.5-2.3.9-3.3l.6-2 1-2.7q.8-1.6.9-2.1.1-.5.4-.8l.6-.4.7-.4.7-.1h.8q.4 0 .7.2l.7.4.6.5.4.7q.2.3.2.7l.1.8-.1.7-.3.7q-.2.4-.2-1.4 0-1.8.4-.6l.8 2.8 1.3 3.3 2 3.3q1 1.5 2.1 2.7l2.1 2.2q1 1 1.6 2l1.6 1.5q.9.8 2.5 1.2 1.7.3 3.3.8 1.7.5.6.4-1.2 0-.8-1.3l.8-2.4q.4-1.2 1.3-2.7 1-1.6 2.3-2 1.3-.3 2.5.1 1.2.5 2.2 1.5l1.8 2 1.5 2.2 1.5 2.2 1.9 2.2q1 1.1 1.7 2.3l1.3 2.4q.6 1.3.3 1.2-.2-.2.4 0 .6.1 1 .4.6.3 1 .8l.6 1 .2 1.2-.2 1.2q-.1.5-.5 1-.3.5-.8.9l-1 .5-1.2.2-1.2-.2q-.6-.2-1-.6-.5-.3-.8-.9-.4-.5-.5-1-.2-.6-.1-1.2l.2-1.2.7-1 .9-.7 1-.5h1.3q.6 0 1.1.3l1 .7.7 1 .4 1v1.3l-.4 1.1-.8 1-1 .6-1.1.3h-.6l-2.2-1.2q-2.2-1.3-3-2.8l-1.6-2.6-1.8-2.3-2-2.4-1.5-2-1.5-2.3q-.8-1.2.3-1 1 .2 2.1-.6t.6.4l-1 2.3-1.1 2.2q-.7 1.2-2 2.5-1.2 1.3-3 1.3-2 0-3.3-.3l-2.8-.8q-1.5-.4-3.1-1.4-1.6-1-2.4-1.8l-1.6-2-1.5-2.1-1.9-2.3-1.9-2-1.3-2-1.1-2-1.3-2.4q-.6-1.3-.8-3.3-.3-2-.3-3.8 0-1.9.2-2.1l.6-.5.7-.4.7-.1h.8q.4 0 .7.2l.7.4.6.5.4.7q.2.3.2.7l.1.8-.1.7-.3.7-.6 1q-.4.5-.9 1.8t-.7 2.5-.6 2.3l-.8 2.8-.4 2q0 .4-.2.7l-.3.7-.5.5q-.2.3-.6.4l-.6.3h-1.4q-.4 0-.7-.2l-.6-.4-.5-.6-.3-.6-.2-.7V142l-.4-2.3-.6-2.6-.7-2.4-1-2.6-1.4-2.8-1.9-3q-1-1.5-2.3-3l-2.8-3.5-3-3.9q-1.6-2-2.5-4-.8-2-1-4.3-.3-2.3 0-2.7l.7-.5q.3-.3.7-.4.4-.2.9-.2h.8q.5 0 .9.2.4.1.7.4t.7.6l.5.7.3.8v1.7l-.3.8-.5 1q-.3.4-.7 1.5t-.8 2.4l-1 3q-.5 1.8-1 2.9-.4 1-1.4 2t-.1-.7q.9-1.6.9-1.2l-.1.8-.3.8-.5.7-.6.6-.7.4-.9.2h-.8l-.8-.2-.8-.4-.6-.5-.5-.7-.3-.8q-.1-.4.3-.1.5.3-.4-1.1-1-1.4-1.5-2.5t-1.2-2.2q-.6-1.1-.9-2.2l-.8-3q-.6-1.8-.8-3l-.4-2.6q-.1-1.5-.4-2.6-.3-1-.5-2.6l-.3-2.8q-.1-1.2-.6-2.9l-.8-3-.7-3.6q-.3-2-.7-3.3-.3-1.3-.2-1.7l.2-.8.5-.7.5-.6q.3-.3.7-.4l.8-.3h1.6l.7.4.7.5.5.6.3.8.2.8v1.4q-.2 1.1-.7 2.4l-1.1 2.5q-.6 1.2-1.7 2.5-1 1.4-2 2.4l-2.3 2.6q-1.4 1.4-2.6 2.3-1.1 1-3.2 1.7t-4-1.1q-2-1.9-2.4-3l-.8-2.6q-.3-1.4-.7-2.4l-.7-2.4-.8-2.8-.6-2.5-.6-2.7-.4-3.2q0-1.6.6-4.1.5-2.5 1-2.7l.8-.3h.8l.9.1.8.4.7.5.5.7.4.8.1.9v.9q0 .4-.3.8-.1.4-.4.7l-.6.7q-.4.2 0-.4.5-.7-.3 1-.8 1.6-1.9 3-1 1.5-1.8 2.4l-1.6 1.8q-.9.8-1.6 1.7-.8 1-1.8 1.8t-2.1 1.3q-1.2.4-2.4.2-1.3-.2-2.3-1.1-1-.9-1.7-2.3l-1.1-3q-.5-1.6-1.2-3.1l-1.2-2.7-1.2-2.4q-.8-1.3-2-2.7-1.1-1.5-1.6-3-.6-1.5.6-1.8 1.2-.4.7.8-.5 1.2-1.5 2.9l-2.3 3.2q-1.2 1.6-2.3 2.7l-2 1.8q-.9.6-3 1-2.1.5-3.4.1t-2.4-1.7q-1.2-1.2-1.6-2.7l-1-2.6-1.5-2.2-1.9-2.1-1.9-1.9q-1-.9-1.7.5l-1.6 3.2-1.5 2.8-1.2 2.3L167 78l-1.1 2.4q-.6 1-1.7 1.8-1.2.7-3.1.6-2-.1-2.7-1-.8-1-1.5-2.7l-1.4-2.8q-.8-1.2-1.4-2.5l-1.2-2.3-1.3-2.6-1.7-3.2q-1-1.6-.8-2 0-.4.3-.8l.5-.7.7-.5q.3-.3.7-.4l.9-.2h.8l.9.3.7.4.6.6.5.7.3.8v1.5l-.4 1.2-.8 2.5q-.3 1.5-.7 2.5t-.7 2.2l-.9 2.6-1 2.6-1 2.5-1.3 2.8-1.2 2.9-1 2.5-1.5 2.8-1.8 2.8q-.7 1.2-2 2-1.1.9-2.2 1-1.1.3-2.3-.2-1.3-.5-2.4-1.4l-2.4-1.8q-1.3-1-2.2-2l-1.8-2.5q-.9-1.3-1.6-2.7l-1.3-2.5q-.6-1.2-1.2-3l-.5-2 .2-.8.4-.8.6-.6.7-.4.8-.3.8-.1.9.1.7.3.7.5.6.7.3.7.2.8v1.5q0 1-.3 2.1-.1 1.2-.6 2.6l-.8 2.7q-.4 1.1-.6 2.8l-.6 3.7-.6 3.2-.5 2.4-.8 2.9-1.2 3.6q-.6 1.9-1.2 2.8l-1.2 2q-.6.9-1.8 1.5-1.3.6-3.1.2-1.9-.5-3-1.5t-2.1-2.7l-1.6-2.7-1.2-1.9q-.7-1-1.3-2.4-.6-1.6-1.2-4-.6-2.5-.3-2.9l.6-.6.7-.4.8-.2h.9l.8.1.8.4.7.5.5.7.3.8.1.8v.9l-.3.8-.5.7q-.3.4-.5 1.6l-.6 2.7-1 2.8-1.2 2.5-1.2 2.7-1.3 2.8-1 2.7q-.7 1.5-1.2 3.2l-1 3.4-1.1 3.1-.2.5q.4-1 .4-.6l-.1 1-.3.8-.6.7-.6.6-.8.4-1 .2H98q-.5 0-.9-.2l-.8-.5-.6-.6-.5-.7-.3-.8q-.1-.4 0-.4l-.3-1q-.4-1.2-1-2.2l-1-2.1q-.5-1.2-1.3-2.2t-2.3-2.3q-1.4-1.1.1-1.4 1.6-.3 1.3 1.1t-.3 2.6l.2 2.5.1 2.5v5l-.2 2.7q0 1.3-.3 2.9l-.4 2.8-.6 2.8q-.5 1.6-1.5 3.5t-2.8 3.2q-1.7 1.3-3.5 1.4-1.8 0-3.2-.8-1.4-.8-2.4-2t-1.6-2.3l-1.2-2-1.3-1.8q-.6-.9-1.8-2.2-1.3-1.3.3-.5 1.6.7 1.1 2-.5 1.2-.8 2.6-.4 1.3-.5 2.9l-.2 3q-.1 1.4-.5 3t-.9 2.9l-1.5 2.6q-.9 1.3-3.1 2.2-2.2.9-3.4 0l-2-1.7q-1-.8-1.8-2.2-1-1.3-1.3-2.3-.4-1-1.3-2.4-.8-1.3-1.2-2.4-.4-1.2-1 0-.5 1.4-.7 2.5l-.6 2.7q-.4 1.5-.5 2.7t-.1 2.5q0 1.3-.3 2.6l-.6 2.6q-.4 1.3-1.4 2.3-1 1-2.8 1.3-1.8.3-2.9-.2-1.1-.4-2-1.3L38 165l-1.5-2-1.7-2.5Q33.6 159 33 158q-.5-1.2 1-1.1 1.4 0 .7 1.2l-1.3 2-1 1q-.2.3-.5.4t-.5.3h-1.2l-.6-.1-.5-.3-.4-.5-.3-.5-.2-.6v-1.2l.3-.5.1-.3z"/>
    <text x="162.3" y="29" font-family="Virgil, Segoe UI Emoji" font-size="20" style="white-space:pre">Déjà vu</text>
</svg>
