<svg xmlns="http://www.w3.org/2000/svg" xmlns:xlink="http://www.w3.org/1999/xlink" width="438.4" height="178.4">
    <defs>
        <path id="A" d="M11.7 140.5h.3l1.4-.7q1.1-.6 1.9-1.4t1.7-1.8l1.8-2 2-2.4 1.6-2.2 1-2.1 1-2.2 1.4-2.9q1-1.7 1-2.3l.5-1.1.8-.9 1-.6 1.2-.2 1.2.2 1 .5.9.8.5 1.1.2 1.2q0 .6-.3 1.2l-.5 1-1 .8q-.4.3-1 .4-.6.2-1.2.1-.6 0-1.1-.3-.6-.2-1-.6-.5-.4-.8-1t-.4-1v-1.2q0-.6.3-1.2l.7-1 1-.6q.5-.3 1.1-.3h1.2q.6 0 1.1.4l1 .7q.4.4.6 1l.3 1.2v.6l-.9 2.4-1.4 3.3-1 2-1.3 2.3-1.2 2.2q-.7 1-1.5 1.8l-1.7 1.8-1.5 1.7-1.5 1.5-1.6 1.3-1.9 1.3q-1 .6-2.2 1l-2.7.6-1.7.3h-.6l-.6-.2-.5-.3-.4-.3-.3-.5-.2-.5v-1.2l.2-.5.3-.4.4-.4.5-.3.6-.1h.3z"/>
        <path id="B" d="m27.1 121.3.4-.7.8-1.7.8-2 .8-2.2.9-2.3 1-2.3 1.6-2.4 1.6-2.2 1.2-1.8q.5-.9 1.3-1.8L39 100l1.6-1.7q1-.8 1.6-.5.7.3 1-.2.3-.6.8-1t1-.6l1.2-.2 1.1.1 1.1.5.9.8q.4.5.5 1.1l.2 1.2q0 .6-.2 1.1t-.5 1.1q-.4.5-.9.8-.5.4-1 .5-.6.2-1.2.1-.7 0-1.2-.2-.6-.2-1-.6-.5-.4-.8-1t-.4-1q-.2-.6-.1-1.2 0-.6.3-1.2l.7-1 1-.7 1-.4H47l1 .4 1 .7.7 1q.3.6.3 1.2v1.2l-.2.6-2.2 1.4q-2.2 1.4-3 2.3l-1.5 1.8-1.4 1.8q-.6 1-1.4 1.8l-1.5 1.7-1.4 1.9q-.6.9-1 1.9l-1.1 2-1.1 2-1.2 1.9-1 1.6-.7 1q-.1.2-.4.3l-.5.4-.5.2h-1.2l-.6-.3-.5-.3-.4-.5-.2-.5-.2-.6v-.6l.2-.6.1-.3z"/>
        <path id="C" d="M45.5 97.7h.3l1.4-.3h2.4l2.5.2q1 0 2.3.3l2.4.7q1.1.4 2 1l2 1.4 2 1.4q.9.7 1.6 1.5l1.6 1.6q1 .8 1.7 1.6l1.5 1.6 1.8 1.8q1 .9 1.7 1.9l1.4 1.8q.6.9 1.6 1.7 1 1 1.8 1.5l2.3 1.3q1.4.6.3 0-1-.7.5-.7h2.2l1.1.5 1 .7q.5.5.7 1 .3.6.4 1.3t-.1 1.2q-.1.6-.5 1.2l-.8 1-1 .6q-.6.2-1.3.2l-1.2-.1q-.6-.1-1.1-.5-.6-.4-1-.9t-.5-1l-.2-1.3q0-.7.2-1.3l.6-1q.3-.5.9-1 .5-.3 1.1-.4.6-.2 1.3-.2.6 0 1.2.3.5.2 1 .7.5.4.8.9.4.5.5 1.2v1.2q0 .6-.3 1.2-.2.6-.7 1-.4.5-1 .8-.5.3-1.1.4H82l-2.6-.2q-2.6-.2-3.7-.5-1-.2-2.3-1l-2.3-1.4q-.8-.6-1.6-1.7L68 119q-.8-.8-1.4-2-.7-1-1.5-1.8l-1.8-2-1.9-2q-.9-.8-1.5-1.6-.7-1-1.9-2l-2-1.8q-1-.8-2.2-1.3l-2.2-.9-2.2-.6-2.2-.4-1.4-.2h-.6l-.5-.2-.5-.3-.4-.3-.4-.5-.2-.5v-1.1l.2-.6.4-.4.4-.4.5-.3.5-.1h.3z"/>
        <style>
            @font-face{font-family:&quot;Virgil&quot;;src:url(https://excalidraw.com/Virgil.woff2)}@font-face{font-family:&quot;Cascadia&quot;;src:url(https://excalidraw.com/Cascadia.woff2)}
        </style>
    </defs>
    <path fill="#fff" d="M0 0h438.4v178.4H0z"/>
    <path fill="none" stroke="#000" stroke-linecap="round" d="m10 155.5 338-1m-338 1 338-1"/>
    <text x="359.4" y="161.4" font-family="Virgil, Segoe UI Emoji" font-size="20" style="white-space:pre">t</text>
    <use xlink:href="#A"/>
    <use xlink:href="#B"/>
    <use xlink:href="#C"/>
    <use xlink:href="#A" x="69.4" y="-21.3"/>
    <use xlink:href="#B" x="69.4" y="-21.3"/>
    <use xlink:href="#C" x="69.4" y="-21.3"/>
    <use xlink:href="#A" x="137.7" y="-41.9"/>
    <use xlink:href="#B" x="137.7" y="-41.9"/>
    <use xlink:href="#C" x="137.7" y="-41.9"/>
    <path d="M217.7 77.1h.3l1.3-.4 2.1-1 2.2-1.3 1.8-1.4 2-1.5 1.9-1.7 1.4-2q.7-.9 1.4-1.5t.9-1.1q.1-.6.5-1 .3-.6.8-1l1-.4 1.2-.2 1.2.2 1 .6.7.9q.4.5.5 1l.1 1.2q0 .6-.3 1.1-.2.6-.6 1l-1 .7q-.4.3-1 .4h-1.2q-.6 0-1-.3-.6-.2-1-.7l-.7-.9q-.3-.5-.3-1.1v-1.2q0-.6.4-1l.7-1q.4-.4 1-.6l1.1-.3 1.2.1q.5.1 1 .5l1 .7q.4.4.5 1l.2 1.2v.6l-1.2 2.1q-1.3 2.2-2.2 3.2l-1.7 2q-.8.9-2 1.7t-2.1 1.6l-2.1 1.4-2.2 1.2-2.2 1-2.4.6-2.4.3h-2.1l-.6-.2-.5-.2-.4-.4-.3-.5-.2-.5v-1q0-.3.2-.5t.3-.5l.4-.3.5-.3.6-.1h.2z"/>
    <path d="m234.9 67.5.4-.7 1-1.7 1.3-2.3 1.2-2.2q.6-1.2 1.4-2.1.8-1 1.7-1.8 1-.8 1.7-1.7l1.5-1.7 1.6-1.5 1.9-1.4q1-.6 1.5-.3t1-.1q.3-.5.8-.8.5-.4 1-.5.7-.2 1.3-.1.6 0 1.1.3l1 .6.7.9.5 1v1.3q0 .5-.3 1l-.7 1q-.4.5-1 .7l-1 .4h-1.2q-.6-.1-1.1-.4l-1-.7-.6-1-.3-1.1v-1.2l.5-1.1q.3-.5.8-.9t1-.6l1.2-.2 1.1.1 1 .5q.6.4 1 .9l.5 1 .1 1.2q0 .6-.2 1.1l-.2.6-2.6 1.5q-2.7 1.5-3.7 2.3l-1.8 1.6-1.7 1.5-1.8 1.5q-.9.8-1.6 1.8l-1.5 2-1.6 2-1.4 1.6-.7.8q-.2.3-.5.4l-.5.3-.6.1h-.6q-.3 0-.5-.2-.3 0-.6-.3l-.4-.4-.3-.5-.2-.5v-1.2q0-.3.2-.5l.2-.3z"/>
    <path d="M257 49.9h.3l1.4-.2 2.2-.2h4.9q1.2 0 2.2.2l2.2.5 2.1.5 2 .8q1 .5 2.1.8l2.1.7 2 .7 2 .8q1 .5 2.4 1.5 1.4.9 2.5.9h2.2q1.1.2 2.6.2h2l1.2.4 1 .8.7 1 .3 1.2v1.2l-.5 1.2-.8 1-1 .6-1.3.2-1.2-.1-1.2-.5-.9-.9q-.4-.5-.5-1l-.2-1.3.2-1.2.5-1.1q.4-.5 1-.9t1-.5q.7-.2 1.3-.1l1.2.2 1 .7q.5.4.9 1l.4 1q.2.7 0 1.3l-.2 1.2-.7 1-1 .8-1.2.4h-3.1l-3.9-.3-2.4-.5q-1.2-.3-2.2-.8l-2.2-1.2q-1-.7-2.1-1l-2-1-2-.8-2.2-1-2.2-.8-2.3-.8-2.2-.6-2.3-.4-2.3-.4-2.1-.3-1.4-.1-.6-.1-.6-.2-.5-.2-.4-.4-.3-.5q-.2-.2-.2-.5v-1.1q0-.3.2-.5l.3-.5.4-.4.5-.2.6-.1h.2z"/>
    <path d="m280.7 56 1.2.4 2.3.6 2.2.4h2.3q1.1-.1 2.2-.6l2-.9q1-.3 2-1l2-1.5q1.1-.8 2.6-1.4 1.4-.7 2.6-.7l2.3-.1h2.4l2.4-.2 2.3-.3 2.4-.2h7.1l2.4-.1h4.8q1.2 0 2.3-.2 1.1-.2 2.4-.2t2.8 0l3.4.2 3.8.1h3.8l2.4.1 1 .4 1 .7.6 1q.3.5.3 1v1.1l-.5 1-.7 1-1 .5-1.1.3q-.6 0-1.1-.2-.6-.1-1-.4-.5-.3-.9-.8l-.5-1q-.2-.5-.2-1.1 0-.6.2-1.1l.5-1 .8-.8 1-.5 1.2-.1q.6 0 1.1.2l1 .6.7.9.4 1v1.2l-.2 1-.7 1-.9.7-1 .3-.6.1h-2.8l-4.7.1-3.8.2-3.4-.1q-1.5-.1-2.8.1-1.3.4-2.4.3H315l-2.2.1-2.2.4h-4.8l-2.4-.2q-1-.2-2.1.3-1 .5-2.4 1.6t-2.7 1.5q-1.4.4-2.7 1-1.4.5-3.2.7h-3q-1-.1-2.3-.5l-2.2-.8-2.4-.8-1.5-.6q-.3 0-.5-.3t-.4-.4l-.3-.5-.2-.6v-1.2l.3-.5q.1-.3.4-.5l.4-.4.6-.2.6-.2h.6l.3.1z"/>
    <text x="207.4" y="29" font-family="Virgil, Segoe UI Emoji" font-size="20" style="white-space:pre">A new peak is reached</text>
    <path fill="none" stroke="#000" stroke-linecap="round" d="m356.2 143.4 15-.3m-15 .3 15-.3m-7 2.7 7-2.7m-7 2.7 7-2.7m-7.1-2.4 7 2.5m-7-2.5 7 2.5"/>
</svg>
