<svg xmlns="http://www.w3.org/2000/svg" width="456.1" height="177.7">
    <style>
        .B{stroke-linecap:round}.C{font-family:Virgil,Segoe UI Emoji}.D{direction:ltr}@font-face{font-family:&quot;Virgil&quot;;src:url(https://excalidraw.com/Virgil.woff2)}@font-face{font-family:&quot;Cascadia&quot;;src:url(https://excalidraw.com/Cascadia.woff2)}
    </style>
    <path fill="#fff" d="M0 0h456.1v177.7H0z"/>
    <path fill="none" stroke="#000" d="m84.8 154.8 338-1m-338 1 338-1m8.3-11.3 15-.3m-15 .3 15-.3m-7 2.7 7-2.7m-7 2.7 7-2.7m-7.1-2.4 7 2.5m-7-2.5 7 2.5" class="B"/>
    <text x="434.1" y="160.7" class="C D" font-size="20" style="white-space:pre">t</text>
    <path d="M106.3 132.1h.7l1.9-.2 2.3-.2q1-.1 2.3-.5l2.3-.8 2.5-.8q1.4-.3 2.4-.7l2.4-.7q1.4-.4 2.4-.9t2.4-1.2l2.4-1.3 2.5-1.3 2.9-1.4 2.7-1.5q1.3-.7 2.3-1.5l2.4-1.6q1.4-1 2.7-1.7l2.4-1.6 2.4-1.7 2.6-1.7 2.4-1.6 2-1.3 2.2-1.8q1-1 1.7-2l1.7-2q1.1-1 1.8-1.9l1.6-1.8 1.6-1.8 2-2.3 2.3-2.6q1.1-1.1 2-2.3l1.8-2.3q1-1 2-2.7l1.4-2.2.5-1q.3-.5.8-.8l1-.5q.5-.2 1.1-.1.6 0 1.1.2l1 .5.7.9.5 1v1.1q0 .6-.2 1.1l-.6 1-1 .7-1 .3h-1.1q-.6 0-1-.3-.6-.2-1-.6-.4-.4-.6-1t-.3-1v-1.1q0-.6.4-1.1l.7-.9 1-.6 1-.2h1.2l1 .5q.5.3.8.8.4.4.6 1l.2 1v.6l-1 2-1.7 3-1.5 2-1.7 2-2.1 2.5-2 2.3-2.2 2.5-2 2.5-1.4 1.8-1.8 1.9-2 2.1-2 2.2q-1.2 1.2-2.4 2.1-1.2 1-2.4 1.7t-2.2 1.3q-1 .5-2.3 1.5l-2.5 2-2.6 1.7-2.7 1.8-2.4 1.7-2.3 1.7-2.8 1.6-3 1.6q-1.7.6-3.1 1.4l-2.6 1.5-2.5 1.3-2.5 1-2.5.6q-1.2.4-2.7.6l-3 .6-2.6.6-2.4.6q-1.3.2-2.4.1l-2.3-.2-2-.1-.9-.1-.6-.2q-.3 0-.5-.2l-.5-.4-.3-.5-.2-.6V134q0-.3.2-.5l.3-.5q.2-.3.5-.4l.5-.3.6-.1h.3z"/>
    <path fill="none" stroke="#000" stroke-dasharray="1.5 7" stroke-width="1.5" d="m95 36.8 335.9.7" class="B"/>
    <path d="m172 91 1-1 2.2-2.2 2.3-2.4 1.6-1.9q1-.8 1.8-2l2-2.3 1.8-2.2 1.7-2 1.8-2.3q1-1.5 1.9-2.4l2-2.2 2.4-2.2 2.4-1.8 2.2-1.5 2-1.4 2.1-1.2 2.3-1.1q1.3-.6 2-1.4t1.9-2l2.5-1.9 2.3-1.7 2.2-1.4 2.1-1.4 2-1 2.1-1.3q1.2-.6 2.1-1.3 1-.7 2.5-1.4l2.7-1.2 2-.9 2.2-.7 2.2-.7q1-.4 2.2-.5 1.3 0 1.7.4.4.5.8.1l1-.7 1.2-.3h1.2q.6 0 1 .5.6.3 1 .8l.6 1 .3 1.2-.2 1.2q-.1.6-.5 1-.3.6-.8 1l-1 .5q-.6.2-1.3.2l-1.1-.2q-.6-.2-1-.6-.6-.3-.9-.8l-.5-1.1q-.2-.6-.1-1.2l.2-1.2.6-1q.4-.5 1-.8l1-.4q.7-.2 1.3-.1.6 0 1.1.3l1 .7.7 1 .4 1V44q0 .6-.4 1.1l-.2.6-3.1 1q-3 1-4.2 1-1.2 0-2.5.4l-2.4 1-2.3.8-2 .9-2.3 1.2-2.3 1.5-2.3 1.2-2 1.2-1.9 1.2-2 1.5-2.1 1.6-2 1.8q-1 .9-2.3 1.6l-2.5 1.6q-1.3.9-2.4 1.4-1.2.5-2 1.2l-2.1 1.4-2 1.4-1.9 1.6-2.3 2.2q-1.2 1.2-1.9 2.2l-1.5 1.9-1.8 2-1.8 2-1.8 2q-1 1.1-1.9 1.8-.8.9-1.7 1.6-.9.6-1.9 1.7l-2.5 2.2-2.2 2.1-1.1 1-.6.4-.6.2h-1.2l-.6-.4-.5-.3-.4-.5-.3-.6v-1.4l.1-.6.4-.5.2-.3z"/>
    <path d="M241.2 39.7h1l2-.2 2.3-.2 2.3-.2 2.7.1q1.7.2 2.9 0l2.7-.2 2.6-.2h5.9q2 0 3.2.2t2.4.3l2.8.4 3 .4 2.5.1h3.4l2.7.1q.6.1 1 .4.6.2 1 .7.4.4.6 1t.4 1l-.1 1.1q-.1.6-.4 1.1-.3.5-.8.9-.4.4-1 .6l-1 .2-1.2-.1-1-.5q-.5-.3-.9-.8l-.5-1q-.2-.5-.2-1.1 0-.6.2-1.1l.5-1 .8-.8q.5-.4 1-.5.6-.2 1.2-.1.6 0 1.1.2.6.2 1 .6.5.4.8.9t.4 1v1.2l-.2 1-.7 1q-.4.5-1 .7-.4.3-1 .4h-7.5q-1.2 0-2.8-.3l-3.3-.5-2.8-.4-2.2-.3-2.7-.1h-10.4q-1.5 0-2.8-.2l-2.4-.2-2.2-.2-2.2-.2-2.1-.2h-1.3l-.6-.2q-.3 0-.5-.3-.3-.1-.5-.4l-.3-.4-.2-.6-.1-.6v-.6l.3-.6.3-.5.5-.4.5-.2.6-.2h.3z"/>
    <g class="C D">
        <text y="19" font-size="20" style="white-space:pre" transform="translate(10 10)">   Peak</text>
        <text y="45" font-size="20" style="white-space:pre" transform="translate(10 10)">capacity</text>
    </g>
</svg>
