<svg xmlns="http://www.w3.org/2000/svg" xmlns:xlink="http://www.w3.org/1999/xlink" width="381.4" height="216.2">
    <style>
        .B{font-family:Virgil,Segoe UI Emoji}.C{direction:ltr}@font-face{font-family:&quot;Virgil&quot;;src:url(https://excalidraw.com/Virgil.woff2)}@font-face{font-family:&quot;Cascadia&quot;;src:url(https://excalidraw.com/Cascadia.woff2)}
    </style>
    <defs>
        <path id="A" d="M11.7 178.2h.5l1.6-.3q1.2 0 2.1-.9 1-.7 2.3-1.3l2.6-1.3q1.3-.8 2-1.6.8-1 1.6-1.7l1.9-1.9 1.9-1.8 1.5-1.6 1.9-2.3 2.2-2.8 1.8-2.2 1.4-1.9 1.8-2 1.8-2.2 1.3-2 1.3-2.2 1.4-2.8 1.2-2.6 1-2 1-2L49 136l1.4-3 1.2-2.6 1-2.5q.6-1.1 1.4-3.4l.9-2.9q.1-.5.5-1t.7-.9l1-.5q.5-.2 1.1-.2l1.1.1 1 .5q.5.3.9.8l.5 1 .1 1.1q0 .6-.2 1.1l-.5 1q-.4.5-.9.8l-1 .5q-.5.2-1.1 0-.6 0-1.1-.2-.6-.2-1-.6l-.7-.9-.4-1V122q0-.6.3-1 .2-.6.6-1l1-.7 1-.3H59l1 .4 1 .7.5 1q.3.5.3 1v.6l-.8 3-1.5 4-1 2.4-1.4 2.8-1.2 2.6q-.6 1.1-1.3 3l-1.3 2.9-1.3 2.7-1.2 2.6-1.1 2.3-1.5 2.5-1.5 2.4-1.7 1.8q-.9.8-1.6 2l-1.6 2.2-1.5 2-1.7 1.9q-1 1-1.5 2-.6 1-1.5 1.9l-1.7 1.9q-1 1-1.9 1.6l-1.8 1.6-1.7 1.8q-.8.9-1.7 1.6l-2.4 1.5-3 1.3-2.4 1-2.6.8q-1.5.5-2.7.4l-1.6-.2-.8-.1-.6-.1-.5-.3-.5-.4-.3-.5-.2-.5V180q0-.3.2-.5l.3-.5.5-.4.5-.3.6-.1h.2z"/>
        <path id="B" d="m53.3 129 .5-1.1 1-2.2 1-2.6 1.2-2.8 1-2.1.8-2.5 1-2.8 1-2.5 1-2.6.8-2.5.9-2.5 1-2.4 1-2.3 1-2.5 1.5-2.4 1.3-2.1q.6-1 1.4-1.9l1.7-2q1-1 1.5-2.2l1.2-2.3 1.4-2.5q.7-1.4 1.4-2.4l1.4-2.2 1.6-2.3 1.8-2.3 1.6-2.1 1.5-2q.6-1 2-2.2l2.4-2q1.2-.8 2.2-1.7t1.6 0q.6.8.9.2l.7-1 1-.6 1.2-.3H99l1.1.5q.5.3.9.8l.6 1q.3.6.3 1.2l-.2 1.2q-.1.6-.5 1-.3.6-.8 1l-1 .5-1.2.2-1.2-.2q-.6-.2-1-.6-.6-.3-.9-.8l-.5-1.1q-.2-.6-.1-1.2l.2-1.2.7-1q.4-.5.9-.8l1-.4q.7-.2 1.3 0 .6 0 1.1.2l1 .7q.5.4.8 1l.3 1.1v1.8l-2.6 1.3q-2.5 1.3-3.4 2L94 68.9l-2 1.8q-1.1 1-1.7 2l-1.5 2-1.6 2-1.7 2.3-1.6 2.6-1.3 2.2-1.2 2.3q-.6 1.2-1.5 2.5L78 90.9l-1.5 2-1.4 2-1.6 2.4-1.6 2.9-1.1 2.4-1 2.1-1 2.7-1 2.9-1 2.4q-.6 1.1-1 2.4l-1 2.3-1.2 2.5-1.3 2.6-1.5 2.8-1.3 2.6-1 2.1-.7 1.5-.3.5-.5.3-.6.3-.6.1h-.6q-.4 0-.6-.2t-.6-.3l-.4-.5-.4-.5-.2-.6q-.2-.3 0-.7l.1-.6.1-.3z"/>
        <path id="C" d="M93.6 60.2h.5l1.6-.2 2.3-.3 2.4-.2h2.7q1.5 0 2.9.9 1.4.7 3.2 1.2 1.8.5 3.1 1.2l2.3 1.3 2.4 1.4 2.4 1.5q1 .7 2 1.8l2.2 2.3 1.6 2.1q.7 1 1.2 2.1t1.5 2.4l1.7 2.5 1.5 2.2 1.3 2.2 1.1 2.4 1.4 2.6q1 1.5 1.4 2.5l1.3 2.7q.8 1.7 1.3 3.2l1 2.7 1 2.4 1.6 3q1 1.7 1.7 3.3l1.4 3 1 2.6q.6 1.3.9 2.5.3 1.1 1.2 3t1.6 3.2l1.4 2.6q.8 1.1 1.3 2.1l1 2 .9 2.1 1 2.5 1 2.6.7 2.4q.4 1.1.7 2.6l.7 2.8q.2 1.3.6 2.4l1 2.6 1.3 2.6.9 2.5.8 2.9 1.1 3q.6 1.6 1.3 2.6l1.8 2.1 2 2.4 1.5 2.1q.7 1 1.8 1.8 1.2 1 2.3 1.6l2.1 1.4q1 .6 2 .2 1-.4 3.2-.4l2.8.1 1.2.4 1 .7.6 1q.3.6.3 1.2v1.2l-.5 1.1q-.3.6-.8 1-.4.4-1 .6l-1.2.3-1.2-.2q-.6-.1-1.1-.5-.5-.3-.9-.8t-.5-1l-.2-1.3.2-1.2q.1-.6.5-1 .4-.6.9-.9l1.1-.5q.6-.2 1.2-.1l1.2.2q.6.2 1 .6.5.4.8 1l.5 1.1v1.2q0 .6-.3 1.2-.2.5-.7 1l-1 .7-1 .4-.7.1h-7.1q-1 0-2.3-.3-1.3-.3-2.4-1.3t-2.3-1.6q-1.2-.5-2.2-1.2-1-.7-2-1.9l-1.6-2.1-1.3-2q-.6-.9-1.7-2-1.1-1-1.8-2l-1.6-2.7q-.9-1.6-1.3-3l-1-2.7-.7-2.6-.7-2.3-1-2q-.6-1-1-2.3t-.8-2.5l-.5-2.3-.6-2.5q-.3-1.4-.8-2.7l-.8-2.5q-.3-1.1-1-2.4l-1-2.3-1.1-2.2-1.4-2.6-1.5-2.8-1.3-2.7q-.7-1.3-1-2.4l-.8-2.1-.9-2.6-1.2-2.8-1.2-2.4q-.4-1.1-1.2-2.4l-1.3-2.3-1.1-2.5-1.4-3.3-1.2-2.7-1-2.2q-.4-1.1-1.4-2.8t-1.4-2.7l-1.3-2.3-1.6-2.5-1.4-2.2q-.7-.8-1.5-2.2t-1.2-2.4q-.4-1.1-1.2-2-.7-1-2-2-1.1-1.3-2.5-2.2l-2.7-1.9-2.3-1.4q-1-.6-2.1-1-1.2-.2-2.3-1-1-.7-2.2-1l-2.3-.3-2.4-.2-2.3-.2-1.6-.2h-.8l-.6-.2-.5-.3-.4-.4-.4-.5-.2-.5V62l.2-.5.4-.5.4-.4.5-.3h.6l.3-.1z"/>
    </defs>
    <path fill="#fff" d="M0 0h381.4v216.2H0z"/>
    <path fill="none" stroke="#000" d="m10 193.3 338-1m-338 1 338-1m8.3-11.3 15-.3m-15 .3 15-.3m-7 2.7 7-2.7m-7 2.7 7-2.7m-7-2.4 7 2.4m-7-2.4 7 2.4" style="stroke-linecap:round"/>
    <text x="359.4" y="199.2" class="B C" font-size="20" style="white-space:pre">t</text>
    <use xlink:href="#A"/>
    <use xlink:href="#B"/>
    <use xlink:href="#C"/>
    <use xlink:href="#A" x="166.2" y="-1.3"/>
    <use xlink:href="#B" x="166.2" y="-1.3"/>
    <use xlink:href="#C" x="166.2" y="-1.3"/>
    <text y="19" class="B C" font-size="20" style="white-space:pre" transform="translate(166.7 10)">Repetition</text>
</svg>
