<svg xmlns="http://www.w3.org/2000/svg" width="385.8" height="223.6">
    <style>
        .B{font-family:Virgil,Segoe UI Emoji}.C{font-size:20px}.D{direction:ltr}.E{stroke-linecap:round}@font-face{font-family:&quot;Virgil&quot;;src:url(https://excalidraw.com/Virgil.woff2)}@font-face{font-family:&quot;Cascadia&quot;;src:url(https://excalidraw.com/Cascadia.woff2)}
    </style>
    <path fill="#fff" d="M0 0h385.8v223.6H0z"/>
    <path fill="none" stroke="#000" d="m14.4 176.4 338-1m-338 1 338-1m8.3-11.2 15-.3m-15 .3 15-.3m-7 2.7 7-2.7m-7 2.7 7-2.7m-7-2.4 7 2.4m-7-2.4 7 2.4" class="E"/>
    <text x="363.8" y="182.3" class="B C D" style="white-space:pre">t</text>
    <path d="m35.9 153.8.7-.1 1.9-.2 2.3-.2q1.1 0 2.3-.5l2.3-.8 2.5-.7 2.4-.7q1-.4 2.4-.7 1.4-.4 2.4-1t2.4-1.2l2.4-1.3 2.5-1.2 2.9-1.5 2.7-1.4 2.3-1.5 2.4-1.7 2.7-1.7 2.4-1.6 2.4-1.7 2.7-1.7 2.3-1.5 2-1.4 2.2-1.8q1-1 1.7-2l1.8-1.9q1-1 1.7-2l1.6-1.7 1.6-1.8 2-2.4 2.4-2.6 2-2.3q.8-1.2 1.7-2.2 1-1 2.1-2.7 1.1-1.7 1.3-2.3l.5-1 .8-.8 1-.4 1.1-.2q.6 0 1.1.2.6.2 1 .6.4.3.7.8t.5 1v1.2l-.2 1q-.2.6-.6 1l-.9.7-1 .4H112q-.6 0-1-.3l-1-.7q-.4-.4-.6-1t-.3-1v-1.1q.1-.6.4-1l.7-1 1-.5 1-.3 1.2.1 1 .5q.5.3.8.7l.6 1 .2 1v.7l-1 1.9q-1 2-1.7 3l-1.5 2-1.7 2-2.1 2.5-2 2.3q-1 1-2.2 2.6l-2 2.5q-.6.9-1.4 1.7t-1.8 2l-2 2-2 2.2q-1.1 1.2-2.4 2.1-1.2 1-2.4 1.7t-2.2 1.3q-1 .5-2.3 1.6l-2.5 2-2.5 1.6-2.8 1.8q-1.5 1-2.4 1.8l-2.3 1.6-2.8 1.7q-1.4.9-3 1.5-1.7.7-3 1.5-1.5.7-2.7 1.5t-2.5 1.3l-2.5.9-2.4.7-2.8.5-3 .6-2.6.7-2.4.5q-1.3.3-2.4.2l-2.3-.2-2-.2-.9-.1-.6-.1-.5-.3-.4-.4-.4-.5-.2-.6v-1.1l.2-.6.4-.5.4-.4.5-.3.6-.1h.3z"/>
    <path fill="none" stroke="#000" stroke-dasharray="1.5 7" stroke-width="1.5" d="M35.2 41.2v135" class="E"/>
    <text x="10" y="206.6" class="B C D" style="white-space:pre">start</text>
    <g class="B C D">
        <text y="19" style="white-space:pre" transform="translate(48.1 10)">  Collect </text>
        <text y="45" style="white-space:pre" transform="translate(48.1 10)">information</text>
    </g>
</svg>
